<svg width="1440" height="1024" viewBox="0 0 1440 1024" fill="none" xmlns="http://www.w3.org/2000/svg" xmlns:xlink="http://www.w3.org/1999/xlink">
<rect width="1440" height="1024" fill="#1669E6" fill-opacity="0.7"/>
<rect x="102" y="329" width="1236" height="695" rx="8" fill="url(#pattern0)"/>
<path d="M108.849 240V180.992H128.14C134.543 180.992 139.353 182.316 142.568 184.964C145.81 187.612 147.431 191.529 147.431 196.717C147.431 199.473 146.648 201.918 145.081 204.052C143.514 206.16 141.379 207.794 138.677 208.956C141.865 209.848 144.378 211.55 146.215 214.062C148.08 216.548 149.012 219.52 149.012 222.979C149.012 228.274 147.296 232.435 143.865 235.461C140.433 238.487 135.584 240 129.315 240H108.849ZM116.63 212.401V233.637H129.478C133.098 233.637 135.948 232.705 138.029 230.841C140.136 228.95 141.19 226.356 141.19 223.06C141.19 215.954 137.326 212.401 129.599 212.401H116.63ZM116.63 206.16H128.383C131.788 206.16 134.503 205.309 136.529 203.606C138.583 201.904 139.609 199.594 139.609 196.676C139.609 193.434 138.664 191.083 136.772 189.625C134.881 188.139 132.004 187.396 128.14 187.396H116.63V206.16ZM168.384 233.637H196.348V240H160.562V180.992H168.384V233.637ZM247.939 212.401C247.939 218.183 246.966 223.235 245.021 227.558C243.076 231.854 240.32 235.137 236.753 237.406C233.187 239.676 229.026 240.811 224.271 240.811C219.624 240.811 215.504 239.676 211.91 237.406C208.317 235.11 205.52 231.854 203.521 227.639C201.549 223.397 200.535 218.493 200.481 212.928V208.672C200.481 202.999 201.468 197.987 203.44 193.637C205.412 189.287 208.195 185.964 211.789 183.667C215.409 181.343 219.543 180.182 224.19 180.182C228.918 180.182 233.079 181.33 236.672 183.626C240.293 185.896 243.076 189.206 245.021 193.556C246.966 197.879 247.939 202.917 247.939 208.672V212.401ZM240.198 208.591C240.198 201.594 238.793 196.23 235.983 192.502C233.174 188.746 229.242 186.869 224.19 186.869C219.273 186.869 215.396 188.746 212.559 192.502C209.749 196.23 208.303 201.418 208.222 208.064V212.401C208.222 219.182 209.641 224.519 212.478 228.409C215.341 232.273 219.273 234.205 224.271 234.205C229.296 234.205 233.187 232.381 235.943 228.733C238.699 225.059 240.117 219.804 240.198 212.968V208.591ZM303.178 232.259C301.178 235.123 298.382 237.271 294.789 238.703C291.222 240.108 287.061 240.811 282.306 240.811C277.497 240.811 273.228 239.689 269.5 237.447C265.771 235.177 262.88 231.962 260.827 227.801C258.8 223.64 257.76 218.818 257.706 213.333V208.186C257.706 199.297 259.773 192.407 263.907 187.517C268.068 182.627 273.903 180.182 281.415 180.182C287.575 180.182 292.533 181.762 296.288 184.923C300.044 188.057 302.34 192.515 303.178 198.297H295.396C293.938 190.489 289.29 186.585 281.455 186.585C276.241 186.585 272.282 188.422 269.581 192.097C266.906 195.744 265.555 201.04 265.528 207.983V212.806C265.528 219.426 267.041 224.694 270.067 228.612C273.093 232.502 277.186 234.448 282.347 234.448C285.265 234.448 287.818 234.124 290.006 233.475C292.195 232.827 294.005 231.732 295.437 230.192V216.94H281.779V210.618H303.178V232.259ZM343.057 250.942H337.018V180.992H343.057V250.942ZM416.776 187.396H397.809V240H390.068V187.396H371.142V180.992H416.776V187.396ZM458.884 212.725H433.311V233.637H463.018V240H425.53V180.992H462.612V187.396H433.311V206.362H458.884V212.725ZM516.108 221.276C515.379 227.518 513.069 232.34 509.178 235.745C505.315 239.122 500.168 240.811 493.737 240.811C486.767 240.811 481.174 238.311 476.959 233.313C472.771 228.315 470.677 221.628 470.677 213.252V207.578C470.677 202.093 471.65 197.271 473.595 193.11C475.568 188.949 478.35 185.761 481.944 183.545C485.537 181.303 489.698 180.182 494.426 180.182C500.694 180.182 505.72 181.938 509.502 185.45C513.285 188.936 515.487 193.772 516.108 199.959H508.287C507.611 195.258 506.139 191.854 503.869 189.746C501.627 187.639 498.479 186.585 494.426 186.585C489.455 186.585 485.551 188.422 482.714 192.097C479.904 195.771 478.499 200.999 478.499 207.781V213.495C478.499 219.898 479.836 224.991 482.511 228.774C485.186 232.556 488.928 234.448 493.737 234.448C498.06 234.448 501.37 233.475 503.667 231.53C505.99 229.557 507.53 226.14 508.287 221.276H516.108ZM572.117 240H564.295V212.725H534.548V240H526.767V180.992H534.548V206.362H564.295V180.992H572.117V240Z" fill="white"/>
<path d="M104.598 72.457C104.598 69.5143 104.988 66.6888 105.77 63.9805C106.564 61.2721 107.742 58.8112 109.305 56.5977C110.867 54.3841 112.488 52.8216 114.168 51.9102L114.91 54.293C113.009 55.7513 111.447 57.9779 110.223 60.9727C109.012 63.9674 108.348 67.3203 108.23 71.0312L108.211 72.6914C108.211 77.7174 109.129 82.0794 110.965 85.7773C112.072 87.9909 113.387 89.7227 114.91 90.9727L114.168 93.1797C112.436 92.2161 110.783 90.6016 109.207 88.3359C106.134 83.9089 104.598 78.6159 104.598 72.457ZM135.047 70.8555H122.723V80.9336H137.039V84H118.973V55.5625H136.844V58.6484H122.723V67.7891H135.047V70.8555ZM148.23 70.582L152.918 62.8672H157.137L150.223 73.3164L157.352 84H153.172L148.289 76.0898L143.406 84H139.207L146.336 73.3164L139.422 62.8672H143.602L148.23 70.582ZM169.363 84.3906C166.499 84.3906 164.168 83.4531 162.371 81.5781C160.574 79.6901 159.676 77.1706 159.676 74.0195V73.3555C159.676 71.2591 160.073 69.3906 160.867 67.75C161.674 66.0964 162.794 64.8073 164.227 63.8828C165.672 62.9453 167.234 62.4766 168.914 62.4766C171.661 62.4766 173.797 63.3815 175.32 65.1914C176.844 67.0013 177.605 69.5924 177.605 72.9648V74.4688H163.289C163.341 76.5521 163.947 78.2383 165.105 79.5273C166.277 80.8034 167.762 81.4414 169.559 81.4414C170.835 81.4414 171.915 81.181 172.801 80.6602C173.686 80.1393 174.461 79.4492 175.125 78.5898L177.332 80.3086C175.561 83.0299 172.905 84.3906 169.363 84.3906ZM168.914 65.4453C167.456 65.4453 166.232 65.9792 165.242 67.0469C164.253 68.1016 163.641 69.5859 163.406 71.5H173.992V71.2266C173.888 69.3906 173.393 67.9714 172.508 66.9688C171.622 65.9531 170.424 65.4453 168.914 65.4453ZM185.203 62.8672L185.301 65.2109C186.85 63.388 188.94 62.4766 191.57 62.4766C194.526 62.4766 196.538 63.6094 197.605 65.875C198.309 64.8594 199.22 64.0391 200.34 63.4141C201.473 62.7891 202.807 62.4766 204.344 62.4766C208.979 62.4766 211.336 64.931 211.414 69.8398V84H207.801V70.0547C207.801 68.5443 207.456 67.418 206.766 66.6758C206.076 65.9206 204.917 65.543 203.289 65.543C201.948 65.543 200.835 65.9466 199.949 66.7539C199.064 67.5482 198.549 68.6224 198.406 69.9766V84H194.773V70.1523C194.773 67.0794 193.27 65.543 190.262 65.543C187.892 65.543 186.271 66.5521 185.398 68.5703V84H181.785V62.8672H185.203ZM234.734 73.668C234.734 76.8841 233.999 79.4753 232.527 81.4414C231.056 83.4076 229.064 84.3906 226.551 84.3906C223.986 84.3906 221.967 83.5768 220.496 81.9492V92.125H216.883V62.8672H220.184L220.359 65.2109C221.831 63.388 223.875 62.4766 226.492 62.4766C229.031 62.4766 231.036 63.4336 232.508 65.3477C233.992 67.2617 234.734 69.9245 234.734 73.3359V73.668ZM231.121 73.2578C231.121 70.875 230.613 68.9935 229.598 67.6133C228.582 66.2331 227.189 65.543 225.418 65.543C223.23 65.543 221.59 66.513 220.496 68.4531V78.5508C221.577 80.4779 223.23 81.4414 225.457 81.4414C227.189 81.4414 228.562 80.7578 229.578 79.3906C230.607 78.0104 231.121 75.9661 231.121 73.2578ZM243.27 84H239.656V54H243.27V84ZM248.113 73.2383C248.113 71.168 248.517 69.306 249.324 67.6523C250.145 65.9987 251.277 64.7227 252.723 63.8242C254.181 62.9258 255.841 62.4766 257.703 62.4766C260.581 62.4766 262.905 63.4727 264.676 65.4648C266.46 67.457 267.352 70.1068 267.352 73.4141V73.668C267.352 75.7253 266.954 77.5742 266.16 79.2148C265.379 80.8424 264.253 82.112 262.781 83.0234C261.323 83.9349 259.643 84.3906 257.742 84.3906C254.878 84.3906 252.553 83.3945 250.77 81.4023C248.999 79.4102 248.113 76.7734 248.113 73.4922V73.2383ZM251.746 73.668C251.746 76.0117 252.286 77.8932 253.367 79.3125C254.461 80.7318 255.919 81.4414 257.742 81.4414C259.578 81.4414 261.036 80.7253 262.117 79.293C263.198 77.8477 263.738 75.8294 263.738 73.2383C263.738 70.9206 263.185 69.0456 262.078 67.6133C260.984 66.168 259.526 65.4453 257.703 65.4453C255.919 65.4453 254.48 66.1549 253.387 67.5742C252.293 68.9935 251.746 71.0247 251.746 73.668ZM280.223 72.6523C280.223 75.556 279.839 78.3424 279.07 81.0117C278.315 83.668 277.15 86.1224 275.574 88.375C274.012 90.6276 272.371 92.2292 270.652 93.1797L269.891 90.9727C271.896 89.4362 273.504 87.0534 274.715 83.8242C275.939 80.582 276.564 76.9883 276.59 73.043V72.418C276.59 69.6836 276.303 67.1445 275.73 64.8008C275.158 62.444 274.357 60.3346 273.328 58.4727C272.312 56.6107 271.167 55.1589 269.891 54.1172L270.652 51.9102C272.371 52.8607 274.005 54.4492 275.555 56.6758C277.117 58.9023 278.283 61.3568 279.051 64.0391C279.832 66.7214 280.223 69.5924 280.223 72.6523Z" fill="white"/>
<path d="M1194.3 225V196.562H1202.33C1204.8 196.562 1206.99 197.109 1208.89 198.203C1210.79 199.297 1212.26 200.853 1213.29 202.871C1214.33 204.889 1214.85 207.207 1214.87 209.824V211.641C1214.87 214.323 1214.35 216.673 1213.3 218.691C1212.28 220.71 1210.8 222.259 1208.87 223.34C1206.96 224.421 1204.72 224.974 1202.17 225H1194.3ZM1198.05 199.648V221.934H1202C1204.89 221.934 1207.13 221.035 1208.73 219.238C1210.35 217.441 1211.16 214.883 1211.16 211.562V209.902C1211.16 206.673 1210.39 204.167 1208.87 202.383C1207.36 200.586 1205.21 199.674 1202.43 199.648H1198.05ZM1228.75 225.391C1225.89 225.391 1223.56 224.453 1221.76 222.578C1219.96 220.69 1219.07 218.171 1219.07 215.02V214.355C1219.07 212.259 1219.46 210.391 1220.26 208.75C1221.07 207.096 1222.18 205.807 1223.62 204.883C1225.06 203.945 1226.62 203.477 1228.3 203.477C1231.05 203.477 1233.19 204.382 1234.71 206.191C1236.23 208.001 1237 210.592 1237 213.965V215.469H1222.68C1222.73 217.552 1223.34 219.238 1224.5 220.527C1225.67 221.803 1227.15 222.441 1228.95 222.441C1230.23 222.441 1231.31 222.181 1232.19 221.66C1233.08 221.139 1233.85 220.449 1234.52 219.59L1236.72 221.309C1234.95 224.03 1232.3 225.391 1228.75 225.391ZM1228.3 206.445C1226.85 206.445 1225.62 206.979 1224.63 208.047C1223.64 209.102 1223.03 210.586 1222.8 212.5H1233.38V212.227C1233.28 210.391 1232.78 208.971 1231.9 207.969C1231.01 206.953 1229.82 206.445 1228.3 206.445ZM1253.5 219.395C1253.5 218.418 1253.13 217.663 1252.39 217.129C1251.66 216.582 1250.38 216.113 1248.54 215.723C1246.72 215.332 1245.26 214.863 1244.18 214.316C1243.12 213.77 1242.32 213.118 1241.8 212.363C1241.29 211.608 1241.04 210.71 1241.04 209.668C1241.04 207.936 1241.77 206.471 1243.23 205.273C1244.7 204.076 1246.57 203.477 1248.85 203.477C1251.25 203.477 1253.19 204.095 1254.67 205.332C1256.17 206.569 1256.92 208.151 1256.92 210.078H1253.29C1253.29 209.089 1252.86 208.236 1252.02 207.52C1251.18 206.803 1250.13 206.445 1248.85 206.445C1247.54 206.445 1246.51 206.732 1245.77 207.305C1245.02 207.878 1244.65 208.626 1244.65 209.551C1244.65 210.423 1245 211.081 1245.69 211.523C1246.38 211.966 1247.62 212.389 1249.42 212.793C1251.23 213.197 1252.69 213.678 1253.81 214.238C1254.93 214.798 1255.76 215.475 1256.29 216.27C1256.84 217.051 1257.11 218.008 1257.11 219.141C1257.11 221.029 1256.36 222.546 1254.85 223.691C1253.34 224.824 1251.38 225.391 1248.97 225.391C1247.28 225.391 1245.78 225.091 1244.48 224.492C1243.17 223.893 1242.15 223.06 1241.41 221.992C1240.68 220.911 1240.32 219.746 1240.32 218.496H1243.93C1243.99 219.707 1244.48 220.671 1245.38 221.387C1246.29 222.09 1247.48 222.441 1248.97 222.441C1250.34 222.441 1251.43 222.168 1252.25 221.621C1253.08 221.061 1253.5 220.319 1253.5 219.395ZM1267.72 215.215L1265.45 217.578V225H1261.84V195H1265.45V213.145L1267.39 210.82L1273.97 203.867H1278.36L1270.14 212.695L1279.32 225H1275.08L1267.72 215.215ZM1287 198.75V203.867H1290.94V206.66H1287V219.766C1287 220.612 1287.17 221.25 1287.52 221.68C1287.88 222.096 1288.47 222.305 1289.32 222.305C1289.74 222.305 1290.31 222.227 1291.04 222.07V225C1290.09 225.26 1289.16 225.391 1288.27 225.391C1286.65 225.391 1285.43 224.902 1284.61 223.926C1283.79 222.949 1283.38 221.562 1283.38 219.766V206.66H1279.54V203.867H1283.38V198.75H1287ZM1293.83 214.238C1293.83 212.168 1294.24 210.306 1295.04 208.652C1295.86 206.999 1297 205.723 1298.44 204.824C1299.9 203.926 1301.56 203.477 1303.42 203.477C1306.3 203.477 1308.62 204.473 1310.39 206.465C1312.18 208.457 1313.07 211.107 1313.07 214.414V214.668C1313.07 216.725 1312.67 218.574 1311.88 220.215C1311.1 221.842 1309.97 223.112 1308.5 224.023C1307.04 224.935 1305.36 225.391 1303.46 225.391C1300.6 225.391 1298.27 224.395 1296.49 222.402C1294.72 220.41 1293.83 217.773 1293.83 214.492V214.238ZM1297.46 214.668C1297.46 217.012 1298.01 218.893 1299.09 220.312C1300.18 221.732 1301.64 222.441 1303.46 222.441C1305.3 222.441 1306.76 221.725 1307.84 220.293C1308.92 218.848 1309.46 216.829 1309.46 214.238C1309.46 211.921 1308.9 210.046 1307.8 208.613C1306.7 207.168 1305.24 206.445 1303.42 206.445C1301.64 206.445 1300.2 207.155 1299.11 208.574C1298.01 209.993 1297.46 212.025 1297.46 214.668ZM1335.45 214.668C1335.45 217.884 1334.72 220.475 1333.25 222.441C1331.77 224.408 1329.78 225.391 1327.27 225.391C1324.7 225.391 1322.69 224.577 1321.21 222.949V233.125H1317.6V203.867H1320.9L1321.08 206.211C1322.55 204.388 1324.59 203.477 1327.21 203.477C1329.75 203.477 1331.76 204.434 1333.23 206.348C1334.71 208.262 1335.45 210.924 1335.45 214.336V214.668ZM1331.84 214.258C1331.84 211.875 1331.33 209.993 1330.32 208.613C1329.3 207.233 1327.91 206.543 1326.14 206.543C1323.95 206.543 1322.31 207.513 1321.21 209.453V219.551C1322.3 221.478 1323.95 222.441 1326.18 222.441C1327.91 222.441 1329.28 221.758 1330.3 220.391C1331.33 219.01 1331.84 216.966 1331.84 214.258Z" fill="white"/>
<defs>
<pattern id="pattern0" patternContentUnits="objectBoundingBox" width="1" height="1">
<use xlink:href="#image0" transform="scale(0.000732159 0.00130208)"/>
</pattern>
</defs>
</svg>
