<svg width="1448" height="1032" viewBox="0 0 1448 1032" fill="none" xmlns="http://www.w3.org/2000/svg">
<g filter="url(#filter0_d)">
<rect width="1440" height="1024" transform="translate(4)" fill="#1669E6"/>
<path d="M405.918 506.051C393.678 506.051 383.132 502.991 374.277 496.871C365.488 490.751 358.717 482.288 353.965 471.48C349.212 460.608 346.836 448.108 346.836 433.98V431.93C346.836 417.802 349.18 405.335 353.867 394.527C358.62 383.655 365.423 375.159 374.277 369.039C383.132 362.854 393.678 359.762 405.918 359.762C418.874 359.762 429.714 362.854 438.438 369.039C447.227 375.159 453.867 383.655 458.359 394.527C462.852 405.335 465.098 417.802 465.098 431.93V433.98C465.098 448.108 462.852 460.608 458.359 471.48C453.867 482.288 447.227 490.751 438.438 496.871C429.714 502.991 418.874 506.051 405.918 506.051ZM405.918 490.035C415.358 490.035 422.975 487.691 428.77 483.004C434.629 478.316 438.926 471.773 441.66 463.375C444.395 454.911 445.762 445.113 445.762 433.98V431.734C445.762 420.667 444.362 410.966 441.562 402.633C438.828 394.234 434.531 387.691 428.672 383.004C422.812 378.251 415.228 375.875 405.918 375.875C397.389 375.875 390.163 378.251 384.238 383.004C378.314 387.757 373.822 394.332 370.762 402.73C367.702 411.064 366.172 420.732 366.172 431.734V433.98C366.172 445.048 367.702 454.814 370.762 463.277C373.822 471.676 378.314 478.251 384.238 483.004C390.163 487.691 397.389 490.035 405.918 490.035ZM476.328 544.625V532.223L491.27 529.488V413.473L475.352 410.738V398.336H507.773L509.531 411.227C516.758 401.331 526.882 396.383 539.902 396.383C548.626 396.383 556.081 398.759 562.266 403.512C568.451 408.199 573.171 414.807 576.426 423.336C579.681 431.799 581.309 441.728 581.309 453.121V455.172C581.309 465.328 579.648 474.215 576.328 481.832C573.073 489.449 568.385 495.406 562.266 499.703C556.146 503.935 548.789 506.051 540.195 506.051C527.37 506.051 517.474 501.721 510.508 493.062V529.488L527.305 532.223V544.625H476.328ZM534.238 491.012C543.353 491.012 550.254 487.691 554.941 481.051C559.629 474.41 561.973 465.784 561.973 455.172V453.121C561.973 441.077 559.629 431.214 554.941 423.531C550.254 415.849 543.288 412.008 534.043 412.008C528.574 412.008 523.887 413.245 519.98 415.719C516.074 418.193 512.917 421.578 510.508 425.875V477.34C512.917 481.702 516.042 485.087 519.883 487.496C523.789 489.84 528.574 491.012 534.238 491.012ZM595.566 504V491.695L611.484 488.961V413.473L595.566 410.738V398.336H630.723V488.961L646.641 491.695V504H595.566ZM610.508 372.262V351.656H630.723V372.262H610.508ZM659.922 504V491.695L675.84 488.961V413.473L659.922 410.738V398.336H693.027L694.395 414.059C697.91 408.46 702.305 404.13 707.578 401.07C712.917 397.945 718.971 396.383 725.742 396.383C737.135 396.383 745.957 399.736 752.207 406.441C758.457 413.082 761.582 423.368 761.582 437.301V488.961L777.5 491.695V504H726.426V491.695L742.344 488.961V437.691C742.344 428.382 740.488 421.773 736.777 417.867C733.132 413.961 727.533 412.008 719.98 412.008C714.447 412.008 709.531 413.342 705.234 416.012C701.003 418.681 697.617 422.327 695.078 426.949V488.961L710.996 491.695V504H659.922ZM790.488 504V491.695L806.406 488.961V413.473L790.488 410.738V398.336H825.645V488.961L841.562 491.695V504H790.488ZM805.43 372.262V351.656H825.645V372.262H805.43ZM889.023 506.051C878.021 506.051 869.655 503.382 863.926 498.043C858.197 492.639 855.332 485.055 855.332 475.289C855.332 465.263 859.434 457.223 867.637 451.168C875.84 445.048 887.233 441.988 901.816 441.988H920.664V431.637C920.664 425.257 918.711 420.309 914.805 416.793C910.964 413.277 905.527 411.52 898.496 411.52C894.069 411.52 890.228 412.073 886.973 413.18C883.717 414.221 880.755 415.686 878.086 417.574L876.035 432.32H861.191V408.102C870.762 400.289 883.294 396.383 898.789 396.383C911.615 396.383 921.673 399.443 928.965 405.562C936.257 411.682 939.902 420.439 939.902 431.832V482.711C939.902 484.078 939.902 485.413 939.902 486.715C939.967 488.017 940.065 489.319 940.195 490.621L950.449 491.695V504H922.812C921.706 498.661 921.022 493.811 920.762 489.449C917.051 494.202 912.396 498.173 906.797 501.363C901.263 504.488 895.339 506.051 889.023 506.051ZM891.855 489.938C898.236 489.938 904.062 488.408 909.336 485.348C914.609 482.288 918.385 478.609 920.664 474.312V455.172H901.133C892.279 455.172 885.638 457.288 881.211 461.52C876.784 465.751 874.57 470.471 874.57 475.68C874.57 485.185 880.332 489.938 891.855 489.938ZM876.328 376.559L865.879 374.41C865.879 370.243 866.79 366.435 868.613 362.984C870.436 359.534 872.878 356.767 875.938 354.684C878.997 352.535 882.415 351.461 886.191 351.461C889.121 351.461 892.246 352.275 895.566 353.902C898.887 355.53 902.077 357.158 905.137 358.785C908.262 360.413 910.931 361.227 913.145 361.227C915.814 361.227 918.125 360.185 920.078 358.102C922.031 355.953 923.008 353.316 923.008 350.191L933.555 352.926C933.555 359.176 931.569 364.482 927.598 368.844C923.626 373.141 918.809 375.289 913.145 375.289C909.954 375.289 906.699 374.508 903.379 372.945C900.059 371.318 896.901 369.69 893.906 368.062C890.977 366.435 888.405 365.621 886.191 365.621C883.457 365.621 881.113 366.695 879.16 368.844C877.272 370.927 876.328 373.499 876.328 376.559ZM1013.14 506.051C1003.38 506.051 994.948 503.772 987.852 499.215C980.82 494.592 975.384 488.245 971.543 480.172C967.702 472.034 965.781 462.757 965.781 452.34V450.191C965.781 439.775 967.702 430.53 971.543 422.457C975.384 414.319 980.82 407.939 987.852 403.316C994.948 398.694 1003.31 396.383 1012.95 396.383C1022.71 396.383 1031.11 398.694 1038.14 403.316C1045.24 407.939 1050.71 414.286 1054.55 422.359C1058.39 430.432 1060.31 439.71 1060.31 450.191V452.34C1060.31 462.822 1058.39 472.132 1054.55 480.27C1050.71 488.342 1045.27 494.658 1038.24 499.215C1031.21 503.772 1022.85 506.051 1013.14 506.051ZM1013.14 491.012C1022.26 491.012 1029.19 487.366 1033.95 480.074C1038.7 472.783 1041.07 463.538 1041.07 452.34V450.191C1041.07 442.77 1040 436.161 1037.85 430.367C1035.77 424.508 1032.64 419.918 1028.48 416.598C1024.31 413.212 1019.13 411.52 1012.95 411.52C1006.83 411.52 1001.69 413.212 997.52 416.598C993.353 419.918 990.228 424.508 988.145 430.367C986.061 436.161 985.02 442.77 985.02 450.191V452.34C985.02 463.538 987.363 472.783 992.051 480.074C996.803 487.366 1003.83 491.012 1013.14 491.012Z" fill="white"/>
<path d="M589.91 678V665.695L605.828 662.961V550.949L589.91 548.215V535.812H655.242C670.411 535.812 682.195 539.719 690.594 547.531C699.057 555.344 703.289 565.63 703.289 578.391C703.289 591.281 699.057 601.6 690.594 609.348C682.195 617.095 670.411 620.969 655.242 620.969H625.066V662.961L640.984 665.695V678H589.91ZM625.066 605.93H655.242C664.878 605.93 672.072 603.358 676.824 598.215C681.642 593.007 684.051 586.464 684.051 578.586C684.051 570.708 681.642 564.133 676.824 558.859C672.072 553.586 664.878 550.949 655.242 550.949H625.066V605.93ZM716.668 678V665.695L732.586 662.961V550.949L716.668 548.215V535.812H767.742V548.215L751.824 550.949V600.07H819.793V550.949L803.875 548.215V535.812H854.949V548.215L839.031 550.949V662.961L854.949 665.695V678H803.875V665.695L819.793 662.961V615.207H751.824V662.961L767.742 665.695V678H716.668ZM920.574 678V665.695L936.492 662.961V550.949L920.574 548.215V535.812H976.238C988.803 535.812 999.741 538.807 1009.05 544.797C1018.43 550.786 1025.72 559.022 1030.93 569.504C1036.13 579.986 1038.74 591.965 1038.74 605.441V608.469C1038.74 621.62 1036.23 633.469 1031.22 644.016C1026.21 654.497 1019.08 662.798 1009.83 668.918C1000.65 674.973 989.78 678 977.215 678H920.574ZM955.73 662.961H976.238C985.223 662.961 992.938 660.52 999.383 655.637C1005.83 650.689 1010.78 644.113 1014.23 635.91C1017.74 627.642 1019.5 618.495 1019.5 608.469V605.246C1019.5 594.895 1017.74 585.65 1014.23 577.512C1010.78 569.309 1005.83 562.831 999.383 558.078C992.938 553.326 985.223 550.949 976.238 550.949H955.73V662.961Z" fill="white"/>
<path d="M903.761 662.673V614.487H861.664V595.8H903.761V551.394H924.442V595.8H966.434V614.487H924.442V662.673H903.761Z" fill="white"/>
</g>
<defs>
<filter id="filter0_d" x="0" y="0" width="1448" height="1032" filterUnits="userSpaceOnUse" color-interpolation-filters="sRGB">
<feFlood flood-opacity="0" result="BackgroundImageFix"/>
<feColorMatrix in="SourceAlpha" type="matrix" values="0 0 0 0 0 0 0 0 0 0 0 0 0 0 0 0 0 0 127 0" result="hardAlpha"/>
<feOffset dy="4"/>
<feGaussianBlur stdDeviation="2"/>
<feComposite in2="hardAlpha" operator="out"/>
<feColorMatrix type="matrix" values="0 0 0 0 0 0 0 0 0 0 0 0 0 0 0 0 0 0 0.25 0"/>
<feBlend mode="normal" in2="BackgroundImageFix" result="effect1_dropShadow"/>
<feBlend mode="normal" in="SourceGraphic" in2="effect1_dropShadow" result="shape"/>
</filter>
</defs>
</svg>
